<?xml version="1.0" encoding="UTF-8"?>
<svg version="1.1" xmlns="http://www.w3.org/2000/svg" width="256" height="256">
<path d="M0 0 C84.48 0 168.96 0 256 0 C256 84.48 256 168.96 256 256 C171.52 256 87.04 256 0 256 C0 171.52 0 87.04 0 0 Z " fill="#EB121E" transform="translate(0,0)"/>
<path d="M0 0 C6.74823012 5.0934917 11.61307171 13.3018264 13.08740234 21.64306641 C14.09846048 31.45981623 12.69455526 40.21302833 6.7734375 48.25390625 C-0.05792719 56.38705197 -8.00038668 61.75869682 -18.765625 62.85546875 C-28.96740884 63.30342243 -37.47121535 60.13484856 -45.26953125 53.578125 C-52.29899013 46.64458466 -56.23065067 37.98918422 -56.6484375 28.1015625 C-56.18827164 17.21097056 -51.34422208 8.21485796 -43.5234375 0.7890625 C-30.30483705 -9.91526555 -13.99031995 -8.60572945 0 0 Z " fill="#FEFCFD" transform="translate(149.2734375,100.3984375)"/>
<path d="M0 0 C4.70076165 4.12139607 5.74612474 10.00350259 6.2578125 16.04296875 C6.49256982 29.27322075 2.22661389 41.50659849 -7.0390625 51.2578125 C-19.07512958 61.95121074 -33.60128542 63.60609447 -49.01953125 63.390625 C-50.61520165 63.3831439 -52.21088137 63.37745984 -53.80656433 63.37347412 C-57.96101251 63.35836444 -62.11488126 63.31921397 -66.269104 63.2746582 C-70.5263282 63.23338445 -74.78364807 63.21539531 -79.04101562 63.1953125 C-87.36093991 63.15270147 -95.68039743 63.08463394 -104 63 C-103.03682405 61.87594212 -102.07359837 60.75192685 -101.11035156 59.62792969 C-100.57396057 59.00198914 -100.03756958 58.37604858 -99.48492432 57.73114014 C-95.22347351 52.76309668 -95.22347351 52.76309668 -93.02001953 50.37524414 C-90.92077587 48.02227468 -90.92077587 48.02227468 -89.25048828 45.21166992 C-86.30635024 41.03049027 -83.71745405 37.69210781 -78.67041016 36.40667725 C-71.84879662 35.54853107 -64.98035346 35.84355267 -58.125 36.0625 C-54.04432227 36.14403681 -49.96419755 36.19468016 -45.8828125 36.22265625 C-44.91363892 36.2308287 -43.94446533 36.23900116 -42.94592285 36.24742126 C-30.70798212 36.19827105 -20.93636304 32.32063517 -11.84375 24.03515625 C-5.30777442 17.29188294 -1.6008003 9.23409013 0 0 Z " fill="#FEFAFA" transform="translate(170,134)"/>
<path d="M0 0 C1.66578995 0.00747607 3.3315888 0.01316253 4.99739075 0.01715088 C9.34584563 0.03229994 13.69375164 0.07148659 18.04199219 0.1159668 C22.49341409 0.15715346 26.94492616 0.17521145 31.39648438 0.1953125 C40.10441634 0.23799346 48.81190519 0.30611145 57.51953125 0.390625 C56.56468728 1.67828443 55.60784008 2.96445856 54.65014648 4.25 C53.85120216 5.32459473 53.85120216 5.32459473 53.03611755 6.42089844 C51.36307323 8.59383105 49.57241878 10.50543766 47.58203125 12.390625 C44.15256642 15.72116296 40.98163492 19.19897358 37.8671875 22.82421875 C35.66887127 25.37936312 35.66887127 25.37936312 33.77838135 25.52192688 C33.02039246 25.52540634 32.26240356 25.5288858 31.48144531 25.5324707 C30.622547 25.53950516 29.76364868 25.54653961 28.87872314 25.55378723 C27.94034607 25.55795151 27.00196899 25.56211578 26.03515625 25.56640625 C24.04686482 25.58963937 22.05858358 25.61375803 20.0703125 25.63867188 C16.93727154 25.67352677 13.80459627 25.70297302 10.67138672 25.71655273 C-6.88421819 25.80753618 -20.97101388 26.75958254 -34.4765625 39.234375 C-40.65108509 45.71430408 -43.95472191 53.89493107 -46.48046875 62.390625 C-51.48723701 57.38385674 -51.74360981 48.73823909 -51.98046875 42.015625 C-51.68477667 29.87992922 -47.04929593 19.92938612 -38.48046875 11.390625 C-26.78876608 1.29147983 -14.8769604 -0.19790177 0 0 Z " fill="#FEFDFD" transform="translate(131.48046875,59.609375)"/>
</svg>
